<?xml version="1.0" encoding="utf-8"?>
<!-- Generator: Adobe Illustrator 17.1.0, SVG Export Plug-In . SVG Version: 6.00 Build 0)  -->
<!DOCTYPE svg PUBLIC "-//W3C//DTD SVG 1.1//EN" "http://www.w3.org/Graphics/SVG/1.1/DTD/svg11.dtd">
<svg version="1.1" id="basket" xmlns="http://www.w3.org/2000/svg" xmlns:xlink="http://www.w3.org/1999/xlink" x="0px" y="0px"
	 viewBox="0 0 1010.0005 928.3398" enable-background="new 0 0 1010.0005 928.3398" xml:space="preserve">
<g>
	<g id="basket-basket">
		<g>
			<path fill="#5C524C" d="M991.6362,423.6406H18.3643C8.2144,423.6406,0,415.4272,0,405.2763V296.4389
				c0-10.1499,8.2144-18.3637,18.3643-18.3637h973.2719c10.1514,0,18.3643,8.2138,18.3643,18.3637v108.8374
				C1010.0005,415.4272,1001.7876,423.6406,991.6362,423.6406L991.6362,423.6406z M36.728,386.9126h936.5458v-72.1099H36.728
				V386.9126L36.728,386.9126z"/>
		</g>
		<g>
			<path fill="#5C524C" d="M820.9819,928.3398H189.0542c-44.7617,0-83.2827-33.3916-89.5952-77.6689L36.19,407.8774
				c-1.4346-10.0434,5.541-19.3501,15.5844-20.7851c10.042-1.524,19.3501,5.5415,20.7847,15.5839l63.269,442.8111
				c3.7476,26.3086,26.6304,46.125,53.2261,46.125h631.9277c26.543,0,49.4249-19.835,53.1915-46.125l63.2695-442.8111
				c1.4337-10.0424,10.7236-17.0366,20.7646-15.5839c10.043,1.435,17.037,10.7417,15.6035,20.7851l-63.2685,442.8111
				C904.1919,894.9658,865.6724,928.3398,820.9819,928.3398L820.9819,928.3398z"/>
		</g>
		<g>
			<g>
				<path fill="#5C524C" d="M829.4116,567.8428H757.355c-10.1514,0-18.3643-8.2129-18.3643-18.3633s8.213-18.3643,18.3643-18.3643
					h72.0566c10.1494,0,18.3623,8.2139,18.3623,18.3643S839.561,567.8428,829.4116,567.8428L829.4116,567.8428z"/>
			</g>
			<g>
				<path fill="#5C524C" d="M685.2612,567.8428h-72.1279c-10.1494,0-18.3623-8.2129-18.3623-18.3633s8.2129-18.3643,18.3623-18.3643
					h72.1279c10.1514,0,18.3643,8.2139,18.3643,18.3643S695.4126,567.8428,685.2612,567.8428L685.2612,567.8428z"/>
			</g>
			<g>
				<path fill="#5C524C" d="M541.0786,567.8428h-72.084c-10.1503,0-18.3637-8.2129-18.3637-18.3633s8.2134-18.3643,18.3637-18.3643
					h72.084c10.1494,0,18.3623,8.2139,18.3623,18.3643S551.228,567.8428,541.0786,567.8428L541.0786,567.8428z"/>
			</g>
			<g>
				<path fill="#5C524C" d="M396.8662,567.8428h-72.0923c-10.1499,0-18.3632-8.2129-18.3632-18.3633s8.2133-18.3643,18.3632-18.3643
					h72.0923c10.1509,0,18.3643,8.2139,18.3643,18.3643S407.0171,567.8428,396.8662,567.8428L396.8662,567.8428z"/>
			</g>
			<g>
				<path fill="#5C524C" d="M252.646,567.8428h-72.0918c-10.1504,0-18.3647-8.2129-18.3647-18.3633s8.2143-18.3643,18.3647-18.3643
					h72.0918c10.1499,0,18.3638,8.2139,18.3638,18.3643S262.7959,567.8428,252.646,567.8428L252.646,567.8428z"/>
			</g>
			<g>
				<path fill="#5C524C" d="M829.4116,675.9638H757.355c-10.1514,0-18.3643-8.2138-18.3643-18.3642
					c0-10.1494,8.213-18.3633,18.3643-18.3633h72.0566c10.1494,0,18.3623,8.2139,18.3623,18.3633
					C847.7739,667.75,839.561,675.9638,829.4116,675.9638L829.4116,675.9638z"/>
			</g>
			<g>
				<path fill="#5C524C" d="M685.2612,675.9638h-72.1279c-10.1494,0-18.3623-8.2138-18.3623-18.3642
					c0-10.1494,8.2129-18.3633,18.3623-18.3633h72.1279c10.1514,0,18.3643,8.2139,18.3643,18.3633
					C703.6255,667.75,695.4126,675.9638,685.2612,675.9638L685.2612,675.9638z"/>
			</g>
			<g>
				<path fill="#5C524C" d="M541.0786,675.9638h-72.084c-10.1503,0-18.3637-8.2138-18.3637-18.3642
					c0-10.1494,8.2134-18.3633,18.3637-18.3633h72.084c10.1494,0,18.3623,8.2139,18.3623,18.3633
					C559.4409,667.75,551.228,675.9638,541.0786,675.9638L541.0786,675.9638z"/>
			</g>
			<g>
				<path fill="#5C524C" d="M396.8662,675.9638h-72.0923c-10.1499,0-18.3632-8.2138-18.3632-18.3642
					c0-10.1494,8.2133-18.3633,18.3632-18.3633h72.0923c10.1509,0,18.3643,8.2139,18.3643,18.3633
					C415.2305,667.75,407.0171,675.9638,396.8662,675.9638L396.8662,675.9638z"/>
			</g>
			<g>
				<path fill="#5C524C" d="M252.646,675.9638h-72.0918c-10.1504,0-18.3647-8.2138-18.3647-18.3642
					c0-10.1494,8.2143-18.3633,18.3647-18.3633h72.0918c10.1499,0,18.3638,8.2139,18.3638,18.3633
					C271.0098,667.75,262.7959,675.9638,252.646,675.9638L252.646,675.9638z"/>
			</g>
			<g>
				<path fill="#5C524C" d="M829.4116,784.1377H757.355c-10.1514,0-18.3643-8.2139-18.3643-18.3643
					c0-10.1494,8.213-18.3633,18.3643-18.3633h72.0566c10.1494,0,18.3623,8.2139,18.3623,18.3633
					C847.7739,775.9238,839.561,784.1377,829.4116,784.1377L829.4116,784.1377z"/>
			</g>
			<g>
				<path fill="#5C524C" d="M685.2612,784.1377h-72.1279c-10.1494,0-18.3623-8.2139-18.3623-18.3643
					c0-10.1494,8.2129-18.3633,18.3623-18.3633h72.1279c10.1514,0,18.3643,8.2139,18.3643,18.3633
					C703.6255,775.9238,695.4126,784.1377,685.2612,784.1377L685.2612,784.1377z"/>
			</g>
			<g>
				<path fill="#5C524C" d="M541.0786,784.1377h-72.084c-10.1503,0-18.3637-8.2139-18.3637-18.3643
					c0-10.1494,8.2134-18.3633,18.3637-18.3633h72.084c10.1494,0,18.3623,8.2139,18.3623,18.3633
					C559.4409,775.9238,551.228,784.1377,541.0786,784.1377L541.0786,784.1377z"/>
			</g>
			<g>
				<path fill="#5C524C" d="M396.8662,784.1377h-72.0923c-10.1499,0-18.3632-8.2139-18.3632-18.3643
					c0-10.1494,8.2133-18.3633,18.3632-18.3633h72.0923c10.1509,0,18.3643,8.2139,18.3643,18.3633
					C415.2305,775.9238,407.0171,784.1377,396.8662,784.1377L396.8662,784.1377z"/>
			</g>
			<g>
				<path fill="#5C524C" d="M252.646,784.1377h-72.0918c-10.1504,0-18.3647-8.2139-18.3647-18.3643
					c0-10.1494,8.2143-18.3633,18.3647-18.3633h72.0918c10.1499,0,18.3638,8.2139,18.3638,18.3633
					C271.0098,775.9238,262.7959,784.1377,252.646,784.1377L252.646,784.1377z"/>
			</g>
		</g>
		<g>
			<g>
				<path fill="#5C524C" d="M829.1948,374.27c-5.4502,0-10.83-2.4033-14.4541-7.0122L607.1089,103.1704
					c-6.2764-7.98-4.8779-19.5112,3.083-25.7881c7.9981-6.2588,19.5117-4.8779,25.79,3.085l207.6329,264.0864
					c6.2753,7.9809,4.8769,19.5117-3.084,25.7886C837.1587,372.979,833.1421,374.27,829.1948,374.27L829.1948,374.27z"/>
			</g>
			<g>
				<path fill="#5C524C" d="M621.5278,183.6382c-50.6084,0-91.8193-41.1934-91.8193-91.8199C529.7085,41.1928,570.9194,0,621.5278,0
					c50.6436,0,91.8184,41.1928,91.8184,91.8183C713.3462,142.4448,672.1714,183.6382,621.5278,183.6382L621.5278,183.6382z
					 M621.5278,36.7275c-30.3808,0-55.0927,24.7119-55.0927,55.0908c0,30.3799,24.7119,55.0918,55.0927,55.0918
					c30.379,0,55.0918-24.7119,55.0918-55.0918C676.6196,61.4394,651.9068,36.7275,621.5278,36.7275L621.5278,36.7275z"/>
			</g>
		</g>
		<g>
			<g>
				<path fill="#5C524C" d="M180.7871,374.27c-3.9629,0-7.9629-1.2739-11.3345-3.9277c-7.9624-6.2769-9.3613-17.8077-3.0839-25.7886
					L374.0015,80.4673c6.2588-7.9629,17.79-9.3799,25.7881-3.085c7.9624,6.2769,9.3613,17.8081,3.0844,25.7881L195.2417,367.2578
					C191.6187,371.8667,186.2388,374.27,180.7871,374.27L180.7871,374.27z"/>
			</g>
			<g>
				<path fill="#5C524C" d="M388.438,183.6382c-50.626,0-91.8193-41.1934-91.8193-91.8199C296.6187,41.1928,337.812,0,388.438,0
					c50.6255,0,91.8188,41.1928,91.8188,91.8183C480.2568,142.4448,439.0635,183.6382,388.438,183.6382L388.438,183.6382z
					 M388.438,36.7275c-30.3789,0-55.0913,24.7119-55.0913,55.0908c0,30.3799,24.7124,55.0918,55.0913,55.0918
					c30.3789,0,55.0908-24.7119,55.0908-55.0918C443.5288,61.4394,418.8169,36.7275,388.438,36.7275L388.438,36.7275z"/>
			</g>
		</g>
	</g>
</g>
</svg>
